<svg width="38" height="38" viewBox="0 0 38 38" fill="none" xmlns="http://www.w3.org/2000/svg">
<path d="M17.3992 25.0733H20.4821V28.1563H17.3992V25.0733ZM18.9406 3.49268C10.4317 3.49268 3.52588 10.3985 3.52588 18.9074C3.52588 27.4164 10.4317 34.3222 18.9406 34.3222C27.4496 34.3222 34.3554 27.4164 34.3554 18.9074C34.3554 10.3985 27.4496 3.49268 18.9406 3.49268ZM18.9406 31.2392C12.1427 31.2392 6.60883 25.7053 6.60883 18.9074C6.60883 12.1095 12.1427 6.57563 18.9406 6.57563C25.7385 6.57563 31.2724 12.1095 31.2724 18.9074C31.2724 25.7053 25.7385 31.2392 18.9406 31.2392ZM18.9406 9.65858C15.534 9.65858 12.7747 12.4178 12.7747 15.8245H15.8577C15.8577 14.1289 17.245 12.7415 18.9406 12.7415C20.6363 12.7415 22.0236 14.1289 22.0236 15.8245C22.0236 18.9074 17.3992 18.5221 17.3992 23.5319H20.4821C20.4821 20.0635 25.1065 19.6782 25.1065 15.8245C25.1065 12.4178 22.3473 9.65858 18.9406 9.65858Z" fill="#D4D6DD"/>
</svg>
