<svg width="101" height="100" viewBox="0 0 101 100" fill="none" xmlns="http://www.w3.org/2000/svg">
<rect x="0.5" width="100" height="100" rx="50" fill="#9CA3AF" fill-opacity="0.6"/>
<path fill-rule="evenodd" clip-rule="evenodd" d="M39.2498 35C39.2498 32.0163 40.435 29.1548 42.5448 27.045C44.6546 24.9353 47.5161 23.75 50.4998 23.75C53.4834 23.75 56.3449 24.9353 58.4547 27.045C60.5645 29.1548 61.7498 32.0163 61.7498 35C61.7498 37.9837 60.5645 40.8452 58.4547 42.955C56.3449 45.0647 53.4834 46.25 50.4998 46.25C47.5161 46.25 44.6546 45.0647 42.5448 42.955C40.435 40.8452 39.2498 37.9837 39.2498 35ZM29.8773 70.2625C29.9616 64.8487 32.1714 59.6851 36.0297 55.8865C39.888 52.0878 45.0853 49.9586 50.4998 49.9586C55.9142 49.9586 61.1116 52.0878 64.9699 55.8865C68.8282 59.6851 71.038 64.8487 71.1223 70.2625C71.1288 70.627 71.0289 70.9854 70.8348 71.294C70.6408 71.6026 70.361 71.8479 70.0298 72C63.9027 74.8093 57.2402 76.2591 50.4998 76.25C43.5348 76.25 36.9173 74.73 30.9698 72C30.6385 71.8479 30.3587 71.6026 30.1647 71.294C29.9706 70.9854 29.8707 70.627 29.8773 70.2625Z" fill="#4B5563"/>
</svg>
