<svg width="50" height="50" viewBox="0 0 96 96" fill="none" xmlns="http://www.w3.org/2000/svg">
<path d="M4.8 24C3.44 24 2.3008 23.5408 1.3824 22.6224C0.460801 21.7008 0 20.56 0 19.2V4.8C0 3.44 0.460801 2.2992 1.3824 1.3776C2.3008 0.4592 3.44 0 4.8 0H19.2C20.56 0 21.7008 0.4592 22.6224 1.3776C23.5408 2.2992 24 3.44 24 4.8C24 6.16 23.5408 7.2992 22.6224 8.2176C21.7008 9.1392 20.56 9.6 19.2 9.6H9.6V19.2C9.6 20.56 9.1408 21.7008 8.2224 22.6224C7.3008 23.5408 6.16 24 4.8 24ZM4.8 96C3.44 96 2.3008 95.5392 1.3824 94.6176C0.460801 93.6992 0 92.56 0 91.2V76.8C0 75.44 0.460801 74.3008 1.3824 73.3824C2.3008 72.4608 3.44 72 4.8 72C6.16 72 7.3008 72.4608 8.2224 73.3824C9.1408 74.3008 9.6 75.44 9.6 76.8V86.4H19.2C20.56 86.4 21.7008 86.8608 22.6224 87.7824C23.5408 88.7008 24 89.84 24 91.2C24 92.56 23.5408 93.6992 22.6224 94.6176C21.7008 95.5392 20.56 96 19.2 96H4.8ZM76.8 96C75.44 96 74.3008 95.5392 73.3824 94.6176C72.4608 93.6992 72 92.56 72 91.2C72 89.84 72.4608 88.7008 73.3824 87.7824C74.3008 86.8608 75.44 86.4 76.8 86.4H86.4V76.8C86.4 75.44 86.8608 74.3008 87.7824 73.3824C88.7008 72.4608 89.84 72 91.2 72C92.56 72 93.6992 72.4608 94.6176 73.3824C95.5392 74.3008 96 75.44 96 76.8V91.2C96 92.56 95.5392 93.6992 94.6176 94.6176C93.6992 95.5392 92.56 96 91.2 96H76.8ZM91.2 24C89.84 24 88.7008 23.5408 87.7824 22.6224C86.8608 21.7008 86.4 20.56 86.4 19.2V9.6H76.8C75.44 9.6 74.3008 9.1392 73.3824 8.2176C72.4608 7.2992 72 6.16 72 4.8C72 3.44 72.4608 2.2992 73.3824 1.3776C74.3008 0.4592 75.44 0 76.8 0H91.2C92.56 0 93.6992 0.4592 94.6176 1.3776C95.5392 2.2992 96 3.44 96 4.8V19.2C96 20.56 95.5392 21.7008 94.6176 22.6224C93.6992 23.5408 92.56 24 91.2 24ZM74.4 74.4H81.6V81.6H74.4V74.4ZM74.4 60H81.6V67.2H74.4V60ZM67.2 67.2H74.4V74.4H67.2V67.2ZM60 74.4H67.2V81.6H60V74.4ZM52.8 67.2H60V74.4H52.8V67.2ZM67.2 52.8H74.4V60H67.2V52.8ZM60 60H67.2V67.2H60V60ZM52.8 52.8H60V60H52.8V52.8ZM81.6 14.4V43.2H52.8V14.4H81.6ZM43.2 52.8V81.6H14.4V52.8H43.2ZM43.2 14.4V43.2H14.4V14.4H43.2ZM36 74.4V60H21.6V74.4H36ZM36 36V21.6H21.6V36H36ZM74.4 36V21.6H60V36H74.4Z"
      fill="white"/>
</svg>
