<svg width="21" height="20" viewBox="0 0 21 20" fill="none" xmlns="http://www.w3.org/2000/svg">
<path d="M4.66667 17.5C4.20833 17.5 3.8125 17.3403 3.47917 17.0208C3.15972 16.6875 3 16.2917 3 15.8333V4.16667C3 3.70833 3.15972 3.31945 3.47917 3C3.8125 2.66667 4.20833 2.5 4.66667 2.5H16.3333C16.7917 2.5 17.1806 2.66667 17.5 3C17.8333 3.31945 18 3.70833 18 4.16667V15.8333C18 16.2917 17.8333 16.6875 17.5 17.0208C17.1806 17.3403 16.7917 17.5 16.3333 17.5H4.66667ZM10.5 13.3333C11.0278 13.3333 11.5069 13.1806 11.9375 12.875C12.3681 12.5694 12.6667 12.1667 12.8333 11.6667H16.3333V4.16667H4.66667V11.6667H8.16667C8.33333 12.1667 8.63195 12.5694 9.0625 12.875C9.49306 13.1806 9.97222 13.3333 10.5 13.3333Z" fill="#D4D6DD"/>
</svg>
